<svg xmlns="http://www.w3.org/2000/svg" viewBox="0 0 64 64">
  <!-- Simple, high contrast design -->
  
  <!-- CPU Chip body -->
  <rect x="12" y="12" width="40" height="40" fill="#000000" stroke="#33ff33" stroke-width="2.5"/>
  
  <!-- CPU Pins (left) -->
  <rect x="4" y="16" width="6" height="3" fill="#33ff33"/>
  <rect x="4" y="23" width="6" height="3" fill="#33ff33"/>
  <rect x="4" y="30" width="6" height="3" fill="#33ff33"/>
  <rect x="4" y="37" width="6" height="3" fill="#33ff33"/>
  <rect x="4" y="44" width="6" height="3" fill="#33ff33"/>
  
  <!-- CPU Pins (right) -->
  <rect x="54" y="16" width="6" height="3" fill="#33ff33"/>
  <rect x="54" y="23" width="6" height="3" fill="#33ff33"/>
  <rect x="54" y="30" width="6" height="3" fill="#33ff33"/>
  <rect x="54" y="37" width="6" height="3" fill="#33ff33"/>
  <rect x="54" y="44" width="6" height="3" fill="#33ff33"/>
  
  <!-- CPU Pins (top) -->
  <rect x="16" y="4" width="3" height="6" fill="#33ff33"/>
  <rect x="23" y="4" width="3" height="6" fill="#33ff33"/>
  <rect x="30" y="4" width="3" height="6" fill="#33ff33"/>
  <rect x="37" y="4" width="3" height="6" fill="#33ff33"/>
  <rect x="44" y="4" width="3" height="6" fill="#33ff33"/>
  
  <!-- CPU Pins (bottom) -->
  <rect x="16" y="54" width="3" height="6" fill="#33ff33"/>
  <rect x="23" y="54" width="3" height="6" fill="#33ff33"/>
  <rect x="30" y="54" width="3" height="6" fill="#33ff33"/>
  <rect x="37" y="54" width="3" height="6" fill="#33ff33"/>
  <rect x="44" y="54" width="3" height="6" fill="#33ff33"/>
  
  <!-- Text "86" - Large and simple -->
  <text x="32" y="40" font-family="Arial, sans-serif" font-size="24" fill="#33ff33" text-anchor="middle" font-weight="bold">86</text>
</svg>
