<svg xmlns="http://www.w3.org/2000/svg" viewBox="0 0 400 300" role="img" aria-label="IBM Model F Keyboard">
  <!-- Background -->
  <rect width="400" height="300" fill="#0D0D0D"/>
  
  <!-- Keyboard Body -->
  <rect x="20" y="80" width="360" height="140" fill="#2a2a2a" stroke="#33ff33" stroke-width="3" rx="8"/>
  
  <!-- Function Keys Row -->
  <g fill="#1a1a1a" stroke="#33ff33" stroke-width="1">
    <rect x="40" y="95" width="18" height="12" rx="2"/>
    <text x="49" y="104" font-family="monospace" font-size="6" fill="#33ff33" text-anchor="middle">F1</text>
    
    <rect x="63" y="95" width="18" height="12" rx="2"/>
    <text x="72" y="104" font-family="monospace" font-size="6" fill="#33ff33" text-anchor="middle">F2</text>
    
    <rect x="86" y="95" width="18" height="12" rx="2"/>
    <text x="95" y="104" font-family="monospace" font-size="6" fill="#33ff33" text-anchor="middle">F3</text>
    
    <rect x="109" y="95" width="18" height="12" rx="2"/>
    <text x="118" y="104" font-family="monospace" font-size="6" fill="#33ff33" text-anchor="middle">F4</text>
    
    <rect x="132" y="95" width="18" height="12" rx="2"/>
    <text x="141" y="104" font-family="monospace" font-size="6" fill="#33ff33" text-anchor="middle">F5</text>
    
    <rect x="155" y="95" width="18" height="12" rx="2"/>
    <text x="164" y="104" font-family="monospace" font-size="6" fill="#33ff33" text-anchor="middle">F6</text>
    
    <rect x="178" y="95" width="18" height="12" rx="2"/>
    <text x="187" y="104" font-family="monospace" font-size="6" fill="#33ff33" text-anchor="middle">F7</text>
    
    <rect x="201" y="95" width="18" height="12" rx="2"/>
    <text x="210" y="104" font-family="monospace" font-size="6" fill="#33ff33" text-anchor="middle">F8</text>
    
    <rect x="224" y="95" width="18" height="12" rx="2"/>
    <text x="233" y="104" font-family="monospace" font-size="6" fill="#33ff33" text-anchor="middle">F9</text>
    
    <rect x="247" y="95" width="18" height="12" rx="2"/>
    <text x="256" y="104" font-family="monospace" font-size="6" fill="#33ff33" text-anchor="middle">F10</text>
  </g>
  
  <!-- Number Row -->
  <g fill="#1a1a1a" stroke="#33ff33" stroke-width="1.5">
    <rect x="40" y="115" width="16" height="16" rx="2"/>
    <rect x="60" y="115" width="16" height="16" rx="2"/>
    <rect x="80" y="115" width="16" height="16" rx="2"/>
    <rect x="100" y="115" width="16" height="16" rx="2"/>
    <rect x="120" y="115" width="16" height="16" rx="2"/>
    <rect x="140" y="115" width="16" height="16" rx="2"/>
    <rect x="160" y="115" width="16" height="16" rx="2"/>
    <rect x="180" y="115" width="16" height="16" rx="2"/>
    <rect x="200" y="115" width="16" height="16" rx="2"/>
    <rect x="220" y="115" width="16" height="16" rx="2"/>
    <rect x="240" y="115" width="16" height="16" rx="2"/>
    <rect x="260" y="115" width="16" height="16" rx="2"/>
  </g>
  
  <!-- QWERTY Row -->
  <g fill="#1a1a1a" stroke="#33ff33" stroke-width="1.5">
    <rect x="45" y="137" width="16" height="16" rx="2"/>
    <text x="53" y="148" font-family="monospace" font-size="9" fill="#33ff33" text-anchor="middle">Q</text>
    
    <rect x="65" y="137" width="16" height="16" rx="2"/>
    <text x="73" y="148" font-family="monospace" font-size="9" fill="#33ff33" text-anchor="middle">W</text>
    
    <rect x="85" y="137" width="16" height="16" rx="2"/>
    <text x="93" y="148" font-family="monospace" font-size="9" fill="#33ff33" text-anchor="middle">E</text>
    
    <rect x="105" y="137" width="16" height="16" rx="2"/>
    <text x="113" y="148" font-family="monospace" font-size="9" fill="#33ff33" text-anchor="middle">R</text>
    
    <rect x="125" y="137" width="16" height="16" rx="2"/>
    <text x="133" y="148" font-family="monospace" font-size="9" fill="#33ff33" text-anchor="middle">T</text>
    
    <rect x="145" y="137" width="16" height="16" rx="2"/>
    <text x="153" y="148" font-family="monospace" font-size="9" fill="#33ff33" text-anchor="middle">Y</text>
    
    <rect x="165" y="137" width="16" height="16" rx="2"/>
    <text x="173" y="148" font-family="monospace" font-size="9" fill="#33ff33" text-anchor="middle">U</text>
    
    <rect x="185" y="137" width="16" height="16" rx="2"/>
    <text x="193" y="148" font-family="monospace" font-size="9" fill="#33ff33" text-anchor="middle">I</text>
    
    <rect x="205" y="137" width="16" height="16" rx="2"/>
    <text x="213" y="148" font-family="monospace" font-size="9" fill="#33ff33" text-anchor="middle">O</text>
    
    <rect x="225" y="137" width="16" height="16" rx="2"/>
    <text x="233" y="148" font-family="monospace" font-size="9" fill="#33ff33" text-anchor="middle">P</text>
  </g>
  
  <!-- ASDF Row -->
  <g fill="#1a1a1a" stroke="#33ff33" stroke-width="1.5">
    <rect x="52" y="159" width="16" height="16" rx="2"/>
    <text x="60" y="170" font-family="monospace" font-size="9" fill="#33ff33" text-anchor="middle">A</text>
    
    <rect x="72" y="159" width="16" height="16" rx="2"/>
    <text x="80" y="170" font-family="monospace" font-size="9" fill="#33ff33" text-anchor="middle">S</text>
    
    <rect x="92" y="159" width="16" height="16" rx="2"/>
    <text x="100" y="170" font-family="monospace" font-size="9" fill="#33ff33" text-anchor="middle">D</text>
    
    <rect x="112" y="159" width="16" height="16" rx="2"/>
    <text x="120" y="170" font-family="monospace" font-size="9" fill="#33ff33" text-anchor="middle">F</text>
    
    <rect x="132" y="159" width="16" height="16" rx="2"/>
    <text x="140" y="170" font-family="monospace" font-size="9" fill="#33ff33" text-anchor="middle">G</text>
    
    <rect x="152" y="159" width="16" height="16" rx="2"/>
    <text x="160" y="170" font-family="monospace" font-size="9" fill="#33ff33" text-anchor="middle">H</text>
    
    <rect x="172" y="159" width="16" height="16" rx="2"/>
    <text x="180" y="170" font-family="monospace" font-size="9" fill="#33ff33" text-anchor="middle">J</text>
    
    <rect x="192" y="159" width="16" height="16" rx="2"/>
    <text x="200" y="170" font-family="monospace" font-size="9" fill="#33ff33" text-anchor="middle">K</text>
    
    <rect x="212" y="159" width="16" height="16" rx="2"/>
    <text x="220" y="170" font-family="monospace" font-size="9" fill="#33ff33" text-anchor="middle">L</text>
  </g>
  
  <!-- Bottom Row -->
  <g fill="#1a1a1a" stroke="#33ff33" stroke-width="1.5">
    <rect x="60" y="181" width="16" height="16" rx="2"/>
    <rect x="80" y="181" width="16" height="16" rx="2"/>
    <rect x="100" y="181" width="16" height="16" rx="2"/>
    <rect x="120" y="181" width="16" height="16" rx="2"/>
    <rect x="140" y="181" width="16" height="16" rx="2"/>
    <rect x="160" y="181" width="16" height="16" rx="2"/>
    <rect x="180" y="181" width="16" height="16" rx="2"/>
  </g>
  
  <!-- Space Bar -->
  <rect x="90" y="203" width="120" height="14" rx="2" fill="#1a1a1a" stroke="#33ff33" stroke-width="1.5"/>
  
  <!-- Enter -->
  <rect x="250" y="159" width="35" height="38" rx="2" fill="#1a1a1a" stroke="#33ff33" stroke-width="2"/>
  <text x="267" y="182" font-family="monospace" font-size="8" fill="#33ff33" text-anchor="middle">ENTER</text>
  
  <!-- Arrow Keys -->
  <g fill="#1a1a1a" stroke="#33ff33" stroke-width="1">
    <rect x="315" y="181" width="14" height="14" rx="1"/>
    <text x="322" y="191" font-family="monospace" font-size="10" fill="#33ff33" text-anchor="middle">↑</text>
    
    <rect x="300" y="199" width="14" height="14" rx="1"/>
    <text x="307" y="209" font-family="monospace" font-size="10" fill="#33ff33" text-anchor="middle">←</text>
    
    <rect x="315" y="199" width="14" height="14" rx="1"/>
    <text x="322" y="209" font-family="monospace" font-size="10" fill="#33ff33" text-anchor="middle">↓</text>
    
    <rect x="330" y="199" width="14" height="14" rx="1"/>
    <text x="337" y="209" font-family="monospace" font-size="10" fill="#33ff33" text-anchor="middle">→</text>
  </g>
  
  <!-- IBM Logo -->
  <text x="330" y="105" font-family="monospace" font-size="18" fill="#33ff33" text-anchor="middle" font-weight="bold">IBM</text>
  
  <!-- LED Indicators -->
  <g>
    <circle cx="310" cy="125" r="3" fill="#33ff33" opacity="0.3"/>
    <circle cx="325" cy="125" r="3" fill="#33ff33" opacity="0.3"/>
    <circle cx="340" cy="125" r="3" fill="#33ff33" opacity="0.7"/>
  </g>
  
  <!-- Label -->
  <text x="200" y="250" font-family="monospace" font-size="20" fill="#33ff33" text-anchor="middle" font-weight="bold">MODEL F KEYBOARD</text>
  <text x="200" y="270" font-family="monospace" font-size="11" fill="#00aa00" text-anchor="middle">83 KEYS | BUCKLING SPRING</text>
</svg>