<svg xmlns="http://www.w3.org/2000/svg" viewBox="0 0 400 300" role="img" aria-label="IBM PC 5150 Motherboard">
  <defs>
    <linearGradient id="pcbGrad" x1="0%" y1="0%" x2="100%" y2="100%">
      <stop offset="0%" style="stop-color:#1a3a1a;stop-opacity:1" />
      <stop offset="100%" style="stop-color:#0a2a0a;stop-opacity:1" />
    </linearGradient>
  </defs>
  
  <!-- Background -->
  <rect width="400" height="300" fill="#0D0D0D"/>
  
  <!-- Motherboard PCB -->
  <rect x="20" y="20" width="360" height="260" fill="url(#pcbGrad)" stroke="#33ff33" stroke-width="3" rx="5"/>
  
  <!-- Circuit traces (simplified) -->
  <g stroke="#00aa00" stroke-width="1" opacity="0.3" fill="none">
    <path d="M 30 30 L 380 30 M 30 270 L 380 270"/>
    <path d="M 30 30 L 30 280 M 370 30 L 370 280"/>
  </g>
  
  <!-- ISA Slots (simplified - only 3) -->
  <g fill="#0D0D0D" stroke="#33ff33" stroke-width="2">
    <rect x="40" y="50" width="70" height="18"/>
    <text x="75" y="63" font-family="monospace" font-size="9" fill="#33ff33" text-anchor="middle">ISA 1</text>
    
    <rect x="40" y="80" width="70" height="18"/>
    <text x="75" y="93" font-family="monospace" font-size="9" fill="#33ff33" text-anchor="middle">ISA 2</text>
    
    <rect x="40" y="110" width="70" height="18"/>
    <text x="75" y="123" font-family="monospace" font-size="9" fill="#33ff33" text-anchor="middle">ISA 3</text>
  </g>
  
  <!-- CPU Socket (simplified) -->
  <rect x="150" y="50" width="90" height="90" fill="#0D0D0D" stroke="#33ff33" stroke-width="3"/>
  <text x="195" y="90" font-family="monospace" font-size="18" fill="#33ff33" text-anchor="middle" font-weight="bold">8088</text>
  <text x="195" y="110" font-family="monospace" font-size="10" fill="#00aa00" text-anchor="middle">CPU</text>
  
  <!-- 8087 Socket -->
  <rect x="260" y="60" width="60" height="60" fill="#0D0D0D" stroke="#33ff33" stroke-width="2" opacity="0.5"/>
  <text x="290" y="87" font-family="monospace" font-size="12" fill="#33ff33" text-anchor="middle">8087</text>
  <text x="290" y="102" font-family="monospace" font-size="7" fill="#00aa00" text-anchor="middle" opacity="0.5">EMPTY</text>
  
  <!-- RAM Bank (simplified) -->
  <g fill="#0D0D0D" stroke="#33ff33" stroke-width="2">
    <rect x="150" y="160" width="170" height="35"/>
    <text x="235" y="182" font-family="monospace" font-size="11" fill="#33ff33" text-anchor="middle">64KB RAM</text>
  </g>
  
  <!-- ROM BIOS -->
  <rect x="260" y="220" width="100" height="35" fill="#0D0D0D" stroke="#33ff33" stroke-width="2"/>
  <text x="310" y="242" font-family="monospace" font-size="12" fill="#33ff33" text-anchor="middle" font-weight="bold">BIOS ROM</text>
  
  <!-- Connectors (simplified) -->
  <rect x="40" y="160" width="80" height="20" fill="#0D0D0D" stroke="#33ff33" stroke-width="2"/>
  <text x="80" y="174" font-family="monospace" font-size="9" fill="#33ff33" text-anchor="middle">SWITCHES</text>
  
  <rect x="40" y="200" width="50" height="25" fill="#0D0D0D" stroke="#33ff33" stroke-width="2"/>
  <text x="65" y="217" font-family="monospace" font-size="8" fill="#33ff33" text-anchor="middle">KEYBOARD</text>
  
  <rect x="40" y="235" width="60" height="25" fill="#0D0D0D" stroke="#33ff33" stroke-width="2"/>
  <text x="70" y="252" font-family="monospace" font-size="9" fill="#33ff33" text-anchor="middle">POWER</text>
  
  <!-- IBM Logo -->
  <text x="200" y="240" font-family="monospace" font-size="28" fill="#33ff33" text-anchor="middle" font-weight="bold">IBM</text>
  <text x="200" y="260" font-family="monospace" font-size="11" fill="#00aa00" text-anchor="middle">PC 5150</text>
</svg>