<svg xmlns="http://www.w3.org/2000/svg" viewBox="0 0 400 300" role="img" aria-label="IBM PC 5150 Motherboard">
  <defs>
    <linearGradient id="pcbGrad" x1="0%" y1="0%" x2="100%" y2="100%">
      <stop offset="0%" style="stop-color:#1a3a1a;stop-opacity:1" />
      <stop offset="100%" style="stop-color:#0a2a0a;stop-opacity:1" />
    </linearGradient>
    <filter id="glow">
      <feGaussianBlur stdDeviation="2" result="coloredBlur"/>
      <feMerge>
        <feMergeNode in="coloredBlur"/>
        <feMergeNode in="SourceGraphic"/>
      </feMerge>
    </filter>
  </defs>
  
  <!-- Background -->
  <rect width="400" height="300" fill="#0D0D0D"/>
  
  <!-- Motherboard PCB with gradient -->
  <rect x="20" y="20" width="360" height="260" fill="url(#pcbGrad)" stroke="#33ff33" stroke-width="3" rx="5" filter="url(#glow)"/>
  
  <!-- Circuit traces (decorative) -->
  <g stroke="#00aa00" stroke-width="1" opacity="0.3" fill="none">
    <path d="M 30 30 L 380 30 M 30 50 L 380 50 M 30 270 L 380 270"/>
    <path d="M 30 30 L 30 280 M 100 30 L 100 280 M 370 30 L 370 280"/>
  </g>
  
  <!-- ISA Slots -->
  <g fill="#0D0D0D" stroke="#33ff33" stroke-width="2">
    <rect x="40" y="40" width="70" height="18"/>
    <text x="75" y="53" font-family="monospace" font-size="9" fill="#33ff33" text-anchor="middle">ISA 1</text>
    
    <rect x="40" y="65" width="70" height="18"/>
    <text x="75" y="78" font-family="monospace" font-size="9" fill="#33ff33" text-anchor="middle">ISA 2</text>
    
    <rect x="40" y="90" width="70" height="18"/>
    <text x="75" y="103" font-family="monospace" font-size="9" fill="#33ff33" text-anchor="middle">ISA 3</text>
    
    <rect x="40" y="115" width="70" height="18"/>
    <text x="75" y="128" font-family="monospace" font-size="9" fill="#33ff33" text-anchor="middle">ISA 4</text>
    
    <rect x="40" y="140" width="70" height="18"/>
    <text x="75" y="153" font-family="monospace" font-size="9" fill="#33ff33" text-anchor="middle">ISA 5</text>
  </g>
  
  <!-- CPU Socket -->
  <rect x="150" y="50" width="90" height="90" fill="#0D0D0D" stroke="#33ff33" stroke-width="3"/>
  <text x="195" y="90" font-family="monospace" font-size="18" fill="#33ff33" text-anchor="middle" font-weight="bold">8088</text>
  <text x="195" y="110" font-family="monospace" font-size="10" fill="#00aa00" text-anchor="middle">CPU SOCKET</text>
  <text x="195" y="125" font-family="monospace" font-size="8" fill="#00aa00" text-anchor="middle">4.77 MHz</text>
  
  <!-- 8087 Socket -->
  <rect x="260" y="50" width="60" height="60" fill="#0D0D0D" stroke="#33ff33" stroke-width="2" opacity="0.5"/>
  <text x="290" y="77" font-family="monospace" font-size="12" fill="#33ff33" text-anchor="middle">8087</text>
  <text x="290" y="92" font-family="monospace" font-size="7" fill="#00aa00" text-anchor="middle" opacity="0.5">EMPTY</text>
  
  <!-- RAM Banks -->
  <g fill="#0D0D0D" stroke="#33ff33" stroke-width="2">
    <rect x="150" y="160" width="170" height="35"/>
    <text x="235" y="182" font-family="monospace" font-size="11" fill="#33ff33" text-anchor="middle">64KB RAM BANK 0</text>
    
    <!-- 9 chips -->
    <g fill="#33ff33" opacity="0.5">
      <rect x="160" y="167" width="12" height="15"/>
      <rect x="177" y="167" width="12" height="15"/>
      <rect x="194" y="167" width="12" height="15"/>
      <rect x="211" y="167" width="12" height="15"/>
      <rect x="228" y="167" width="12" height="15"/>
      <rect x="245" y="167" width="12" height="15"/>
      <rect x="262" y="167" width="12" height="15"/>
      <rect x="279" y="167" width="12" height="15"/>
      <rect x="296" y="167" width="12" height="15"/>
    </g>
    
    <rect x="150" y="205" width="170" height="25" opacity="0.3"/>
    <text x="235" y="222" font-family="monospace" font-size="9" fill="#00aa00" text-anchor="middle" opacity="0.5">BANK 1 - EMPTY</text>
  </g>
  
  <!-- ROM BIOS -->
  <rect x="260" y="240" width="100" height="35" fill="#0D0D0D" stroke="#33ff33" stroke-width="2"/>
  <text x="310" y="262" font-family="monospace" font-size="12" fill="#33ff33" text-anchor="middle" font-weight="bold">BIOS ROM</text>
  
  <!-- Capacitors -->
  <g fill="#33ff33">
    <circle cx="140" cy="200" r="6"/>
    <circle cx="160" cy="220" r="6"/>
    <circle cx="180" cy="200" r="6"/>
    <circle cx="200" cy="220" r="6"/>
  </g>
  
  <!-- DIP Switches -->
  <rect x="40" y="180" width="80" height="20" fill="#0D0D0D" stroke="#33ff33" stroke-width="2"/>
  <text x="80" y="194" font-family="monospace" font-size="9" fill="#33ff33" text-anchor="middle">DIP SWITCHES</text>
  
  <!-- Keyboard connector -->
  <rect x="40" y="220" width="50" height="25" fill="#0D0D0D" stroke="#33ff33" stroke-width="2"/>
  <text x="65" y="237" font-family="monospace" font-size="8" fill="#33ff33" text-anchor="middle">KEYBOARD</text>
  
  <!-- Power connector -->
  <rect x="40" y="250" width="60" height="25" fill="#0D0D0D" stroke="#33ff33" stroke-width="2"/>
  <text x="70" y="267" font-family="monospace" font-size="9" fill="#33ff33" text-anchor="middle">POWER</text>
  
  <!-- Mounting holes -->
  <g fill="#0D0D0D" stroke="#33ff33" stroke-width="2">
    <circle cx="35" cy="35" r="4"/>
    <circle cx="365" cy="35" r="4"/>
    <circle cx="35" cy="265" r="4"/>
    <circle cx="365" cy="265" r="4"/>
  </g>
  
  <!-- IBM Logo -->
  <text x="200" y="245" font-family="monospace" font-size="32" fill="#33ff33" text-anchor="middle" font-weight="bold">IBM</text>
  <text x="200" y="265" font-family="monospace" font-size="12" fill="#00aa00" text-anchor="middle">PC 5150 MOTHERBOARD</text>
</svg>