<svg xmlns="http://www.w3.org/2000/svg" viewBox="0 0 400 300" role="img" aria-label="Intel 80286 CPU">
  <defs>
    <linearGradient id="bgGrad" x1="0%" y1="0%" x2="100%" y2="100%">
      <stop offset="0%" style="stop-color:#0D0D0D;stop-opacity:1" />
      <stop offset="100%" style="stop-color:#1a1a1a;stop-opacity:1" />
    </linearGradient>
  </defs>
  
  <rect width="400" height="300" fill="url(#bgGrad)"/>
  
  <!-- CPU Chip Body -->
  <rect x="80" y="60" width="240" height="180" fill="#1a1a1a" stroke="#33ff33" stroke-width="3" rx="5"/>
  <rect x="85" y="65" width="230" height="170" fill="none" stroke="#00aa00" stroke-width="1" rx="3" opacity="0.5"/>
  
  <!-- Top Pins -->
  <g fill="#33ff33">
    <rect x="90" y="45" width="6" height="20" rx="1"/>
    <rect x="120" y="45" width="6" height="20" rx="1"/>
    <rect x="150" y="45" width="6" height="20" rx="1"/>
    <rect x="180" y="45" width="6" height="20" rx="1"/>
    <rect x="210" y="45" width="6" height="20" rx="1"/>
    <rect x="240" y="45" width="6" height="20" rx="1"/>
    <rect x="270" y="45" width="6" height="20" rx="1"/>
    <rect x="300" y="45" width="6" height="20" rx="1"/>
  </g>
  
  <!-- Bottom Pins -->
  <g fill="#33ff33">
    <rect x="90" y="235" width="6" height="20" rx="1"/>
    <rect x="120" y="235" width="6" height="20" rx="1"/>
    <rect x="150" y="235" width="6" height="20" rx="1"/>
    <rect x="180" y="235" width="6" height="20" rx="1"/>
    <rect x="210" y="235" width="6" height="20" rx="1"/>
    <rect x="240" y="235" width="6" height="20" rx="1"/>
    <rect x="270" y="235" width="6" height="20" rx="1"/>
    <rect x="300" y="235" width="6" height="20" rx="1"/>
  </g>
  
  <!-- Left Pins -->
  <g fill="#33ff33">
    <rect x="55" y="80" width="25" height="5" rx="1"/>
    <rect x="55" y="110" width="25" height="5" rx="1"/>
    <rect x="55" y="140" width="25" height="5" rx="1"/>
    <rect x="55" y="170" width="25" height="5" rx="1"/>
    <rect x="55" y="200" width="25" height="5" rx="1"/>
  </g>
  
  <!-- Right Pins -->
  <g fill="#33ff33">
    <rect x="320" y="80" width="25" height="5"/>
    <rect x="320" y="110" width="25" height="5"/>
    <rect x="320" y="140" width="25" height="5"/>
    <rect x="320" y="170" width="25" height="5"/>
    <rect x="320" y="200" width="25" height="5"/>
  </g>
  
  <!-- Intel Logo Area -->
  <rect x="100" y="80" width="200" height="45" fill="#0D0D0D" stroke="#33ff33" stroke-width="2" rx="3"/>
  <text x="200" y="108" font-family="monospace" font-size="22" fill="#33ff33" text-anchor="middle" font-weight="bold">intel®</text>
  
  <!-- Model Number -->
  <text x="200" y="155" font-family="monospace" font-size="38" fill="#33ff33" text-anchor="middle" font-weight="bold">80286</text>
  
  <!-- Chip details -->
  <g font-family="monospace" fill="#00aa00" font-size="10">
    <text x="200" y="180" text-anchor="middle">16-BIT CPU</text>
    <text x="200" y="195" text-anchor="middle">PROTECTED MODE</text>
    <text x="200" y="210" text-anchor="middle">UP TO 16MB RAM</text>
  </g>
</svg>