<svg xmlns="http://www.w3.org/2000/svg" viewBox="0 0 400 300" role="img" aria-label="64KB RAM Module">
  <!-- Background -->
  <rect width="400" height="300" fill="#0D0D0D"/>
  
  <!-- RAM Module -->
  <rect x="50" y="60" width="300" height="180" fill="#1a1a1a" stroke="#33ff33" stroke-width="3" rx="5"/>
  
  <!-- 9 Memory Chips (4164) -->
  <g fill="#0D0D0D" stroke="#33ff33" stroke-width="2">
    <!-- Row 1 -->
    <rect x="70" y="80" width="80" height="60" rx="3"/>
    <rect x="160" y="80" width="80" height="60" rx="3"/>
    <rect x="250" y="80" width="80" height="60" rx="3"/>
    
    <!-- Row 2 -->
    <rect x="70" y="150" width="80" height="60" rx="3"/>
    <rect x="160" y="150" width="80" height="60" rx="3"/>
    <rect x="250" y="150" width="80" height="60" rx="3"/>
    
    <!-- Row 3 -->
    <rect x="70" y="220" width="80" height="20" rx="3"/>
    <rect x="160" y="220" width="80" height="20" rx="3"/>
    <rect x="250" y="220" width="80" height="20" rx="3"/>
  </g>
  
  <!-- Chip Labels -->
  <g font-family="monospace" font-size="12" fill="#33ff33" text-anchor="middle">
    <text x="110" y="115">4164</text>
    <text x="200" y="115">4164</text>
    <text x="290" y="115">4164</text>
    <text x="110" y="185">4164</text>
    <text x="200" y="185">4164</text>
    <text x="290" y="185">4164</text>
  </g>
  
  <!-- Module Label -->
  <text x="200" y="40" font-family="monospace" font-size="24" fill="#33ff33" text-anchor="middle" font-weight="bold">64KB RAM</text>
  <text x="200" y="280" font-family="monospace" font-size="12" fill="#00aa00" text-anchor="middle">9 × 4164 (64Kx1) CHIPS</text>
</svg>