<svg xmlns="http://www.w3.org/2000/svg" viewBox="0 0 200 200" width="200" height="200">
  <defs>
    <linearGradient id="chipGrad" x1="0%" y1="0%" x2="100%" y2="100%">
      <stop offset="0%" style="stop-color:#2c3e50;stop-opacity:1" />
      <stop offset="100%" style="stop-color:#34495e;stop-opacity:1" />
    </linearGradient>
  </defs>
  
  <!-- Фон -->
  <rect width="200" height="200" fill="#1a1a1a"/>
  
  <!-- Процессор -->
  <rect x="50" y="50" width="100" height="100" fill="url(#chipGrad)" stroke="#ecf0f1" stroke-width="2" rx="4"/>
  
  <!-- Ножки слева -->
  <rect x="30" y="60" width="15" height="3" fill="#bdc3c7"/>
  <rect x="30" y="75" width="15" height="3" fill="#bdc3c7"/>
  <rect x="30" y="90" width="15" height="3" fill="#bdc3c7"/>
  <rect x="30" y="105" width="15" height="3" fill="#bdc3c7"/>
  <rect x="30" y="120" width="15" height="3" fill="#bdc3c7"/>
  <rect x="30" y="135" width="15" height="3" fill="#bdc3c7"/>
  
  <!-- Ножки справа -->
  <rect x="155" y="60" width="15" height="3" fill="#bdc3c7"/>
  <rect x="155" y="75" width="15" height="3" fill="#bdc3c7"/>
  <rect x="155" y="90" width="15" height="3" fill="#bdc3c7"/>
  <rect x="155" y="105" width="15" height="3" fill="#bdc3c7"/>
  <rect x="155" y="120" width="15" height="3" fill="#bdc3c7"/>
  <rect x="155" y="135" width="15" height="3" fill="#bdc3c7"/>
  
  <!-- Текст 8086 -->
  <text x="100" y="95" text-anchor="middle" fill="#ecf0f1" font-family="Courier New, monospace" font-size="16" font-weight="bold">8086</text>
  <text x="100" y="115" text-anchor="middle" fill="#95a5a6" font-family="Arial" font-size="10">RETRO</text>
</svg>
