<svg xmlns="http://www.w3.org/2000/svg" viewBox="0 0 200 200" width="200" height="200">
  <defs>
    <!-- Зелёный терминальный градиент -->
    <linearGradient id="chipGrad" x1="0%" y1="0%" x2="100%" y2="100%">
      <stop offset="0%" style="stop-color:#0d0d0d;stop-opacity:1" />
      <stop offset="100%" style="stop-color:#1a1a1a;stop-opacity:1" />
    </linearGradient>
  </defs>
  
  <!-- Фон -->
  <rect width="200" height="200" fill="#0a0a0a"/>
  
  <!-- Процессор -->
  <rect x="50" y="50" width="100" height="100" fill="url(#chipGrad)" stroke="#33ff33" stroke-width="2.5" rx="4"/>
  
  <!-- Внутренняя рамка -->
  <rect x="60" y="60" width="80" height="80" fill="none" stroke="#33ff33" stroke-width="1" opacity="0.3" rx="2"/>
  
  <!-- Ножки слева -->
  <rect x="30" y="60" width="15" height="3" fill="#33ff33"/>
  <rect x="30" y="75" width="15" height="3" fill="#33ff33"/>
  <rect x="30" y="90" width="15" height="3" fill="#33ff33"/>
  <rect x="30" y="105" width="15" height="3" fill="#33ff33"/>
  <rect x="30" y="120" width="15" height="3" fill="#33ff33"/>
  <rect x="30" y="135" width="15" height="3" fill="#33ff33"/>
  
  <!-- Ножки справа -->
  <rect x="155" y="60" width="15" height="3" fill="#33ff33"/>
  <rect x="155" y="75" width="15" height="3" fill="#33ff33"/>
  <rect x="155" y="90" width="15" height="3" fill="#33ff33"/>
  <rect x="155" y="105" width="15" height="3" fill="#33ff33"/>
  <rect x="155" y="120" width="15" height="3" fill="#33ff33"/>
  <rect x="155" y="135" width="15" height="3" fill="#33ff33"/>
  
  <!-- Ножки сверху -->
  <rect x="60" y="30" width="3" height="15" fill="#33ff33"/>
  <rect x="75" y="30" width="3" height="15" fill="#33ff33"/>
  <rect x="90" y="30" width="3" height="15" fill="#33ff33"/>
  <rect x="105" y="30" width="3" height="15" fill="#33ff33"/>
  <rect x="120" y="30" width="3" height="15" fill="#33ff33"/>
  <rect x="135" y="30" width="3" height="15" fill="#33ff33"/>
  
  <!-- Ножки снизу -->
  <rect x="60" y="155" width="3" height="15" fill="#33ff33"/>
  <rect x="75" y="155" width="3" height="15" fill="#33ff33"/>
  <rect x="90" y="155" width="3" height="15" fill="#33ff33"/>
  <rect x="105" y="155" width="3" height="15" fill="#33ff33"/>
  <rect x="120" y="155" width="3" height="15" fill="#33ff33"/>
  <rect x="135" y="155" width="3" height="15" fill="#33ff33"/>
  
  <!-- Текст 8086 -->
  <text x="100" y="95" text-anchor="middle" fill="#33ff33" font-family="Courier New, monospace" font-size="18" font-weight="bold">8086</text>
  <text x="100" y="115" text-anchor="middle" fill="#228822" font-family="Courier New, monospace" font-size="11">PROCESSOR</text>
</svg>
